<?xml version="1.0" encoding="UTF-8" standalone="no"?>
<svg
   width="20.999998"
   height="20.999998"
   viewBox="0 0 20.999998 20.999998"
   fill="none"
   stroke="currentColor"
   stroke-width="2"
   stroke-linecap="round"
   stroke-linejoin="round"
   class="lucide lucide-bone"
   version="1.1"
   id="svg1"
   sodipodi:docname="bones-1.svg"
   inkscape:version="1.4 (e7c3feb1, 2024-10-09)"
   inkscape:export-filename="bones-1.png"
   inkscape:export-xdpi="128.00002"
   inkscape:export-ydpi="128.00002"
   xmlns:inkscape="http://www.inkscape.org/namespaces/inkscape"
   xmlns:sodipodi="http://sodipodi.sourceforge.net/DTD/sodipodi-0.dtd"
   xmlns="http://www.w3.org/2000/svg"
   xmlns:svg="http://www.w3.org/2000/svg">
  <defs
     id="defs1" />
  <sodipodi:namedview
     id="namedview1"
     pagecolor="#ffffff"
     bordercolor="#000000"
     borderopacity="0.25"
     inkscape:showpageshadow="2"
     inkscape:pageopacity="0.0"
     inkscape:pagecheckerboard="0"
     inkscape:deskcolor="#d1d1d1"
     inkscape:zoom="11.313708"
     inkscape:cx="10.562408"
     inkscape:cy="10.783379"
     inkscape:window-width="2560"
     inkscape:window-height="1387"
     inkscape:window-x="1470"
     inkscape:window-y="25"
     inkscape:window-maximized="0"
     inkscape:current-layer="svg1" />
  <path
     d="m 15.499999,8.4999989 c 0.7,-0.7 1.69,0 2.5,0 a 2.5,2.5 0 1 0 0,-5 0.5,0.5 0 0 1 -0.5,-0.5 2.5,2.5 0 1 0 -5,0 c 0,0.81 0.7,1.8 0,2.5 L 5.4999989,12.499999 c -0.7,0.7 -1.69,0 -2.5,0 a 2.5,2.5 0 0 0 0,5 c 0.28,0 0.5,0.22 0.5,0.5 a 2.5,2.5 0 1 0 5,0 c 0,-0.81 -0.7,-1.8 0,-2.5 z"
     id="path1"
     inkscape:label="bone1"
     style="display:inline;fill:#a05a2c;stroke:#000000;stroke-width:1;stroke-dasharray:none;stroke-dashoffset:0;stroke-opacity:1" />
  <path
     d="m 27.499999,8.4999989 c 0.7,-0.7 1.69,0 2.5,0 a 2.5,2.5 0 1 0 0,-5 0.5,0.5 0 0 1 -0.5,-0.5 2.5,2.5 0 1 0 -5,0 c 0,0.81 0.7,1.8 0,2.5 l -7,7.0000001 c -0.7,0.7 -1.69,0 -2.5,0 a 2.5,2.5 0 0 0 0,5 c 0.28,0 0.5,0.22 0.5,0.5 a 2.5,2.5 0 1 0 5,0 c 0,-0.81 -0.7,-1.8 0,-2.5 z"
     id="path2"
     inkscape:label="bone2"
     style="display:none;fill:#784421;stroke:#000000;stroke-width:1;stroke-dasharray:none;stroke-dashoffset:0;stroke-opacity:1" />
  <path
     d="m 39.499999,8.4999989 c 0.7,-0.7 1.69,0 2.5,0 a 2.5,2.5 0 1 0 0,-5 0.5,0.5 0 0 1 -0.5,-0.5 2.5,2.5 0 1 0 -5,0 c 0,0.81 0.7,1.8 0,2.5 l -7,7.0000001 c -0.7,0.7 -1.69,0 -2.5,0 a 2.5,2.5 0 0 0 0,5 c 0.28,0 0.5,0.22 0.5,0.5 a 2.5,2.5 0 1 0 5,0 c 0,-0.81 -0.7,-1.8 0,-2.5 z"
     id="path3"
     inkscape:label="bone3"
     style="display:none;fill:#784421;stroke:#000000;stroke-width:1;stroke-dasharray:none;stroke-dashoffset:0;stroke-opacity:1" />
  <path
     d="m 51.499999,8.4999989 c 0.7,-0.7 1.69,0 2.5,0 a 2.5,2.5 0 1 0 0,-5 0.5,0.5 0 0 1 -0.5,-0.5 2.5,2.5 0 1 0 -5,0 c 0,0.81 0.7,1.8 0,2.5 l -7,7.0000001 c -0.7,0.7 -1.69,0 -2.5,0 a 2.5,2.5 0 0 0 0,5 c 0.28,0 0.5,0.22 0.5,0.5 a 2.5,2.5 0 1 0 5,0 c 0,-0.81 -0.7,-1.8 0,-2.5 z"
     id="path4"
     inkscape:label="bone4"
     style="display:none;fill:#784421;stroke:#000000;stroke-width:1;stroke-dasharray:none;stroke-dashoffset:0;stroke-opacity:1" />
</svg>
