<?xml version="1.0" encoding="UTF-8" standalone="no"?>
<!-- Created with Inkscape (http://www.inkscape.org/) -->

<svg
   width="210mm"
   height="297mm"
   viewBox="0 0 210 297"
   version="1.1"
   id="svg1"
   inkscape:version="1.3.2 (091e20e, 2023-11-25)"
   sodipodi:docname="scarf_typewriter_serial_font.svg"
   inkscape:export-filename="scarf_typewriter_serial_font.plain.svg"
   inkscape:export-xdpi="96"
   inkscape:export-ydpi="96"
   xmlns:inkscape="http://www.inkscape.org/namespaces/inkscape"
   xmlns:sodipodi="http://sodipodi.sourceforge.net/DTD/sodipodi-0.dtd"
   xmlns="http://www.w3.org/2000/svg"
   xmlns:svg="http://www.w3.org/2000/svg">
  <sodipodi:namedview
     id="namedview1"
     pagecolor="#ffffff"
     bordercolor="#000000"
     borderopacity="0.25"
     inkscape:showpageshadow="2"
     inkscape:pageopacity="0.0"
     inkscape:pagecheckerboard="0"
     inkscape:deskcolor="#d1d1d1"
     inkscape:document-units="mm"
     inkscape:zoom="18.654309"
     inkscape:cx="126.21749"
     inkscape:cy="235.87044"
     inkscape:window-width="2560"
     inkscape:window-height="1387"
     inkscape:window-x="1469"
     inkscape:window-y="25"
     inkscape:window-maximized="0"
     inkscape:current-layer="layer1" />
  <defs
     id="defs1" />
  <g
     inkscape:label="Layer 1"
     inkscape:groupmode="layer"
     id="layer1">
    <text
       xml:space="preserve"
       style="font-size:8.46667px;letter-spacing:1.32292px;display:none;fill:#000000;stroke-width:0.264583"
       x="18.877117"
       y="65.440681"
       id="text1"
       inkscape:label="scarf"><tspan
         sodipodi:role="line"
         id="tspan1"
         style="font-style:normal;font-variant:normal;font-weight:normal;font-stretch:normal;font-size:8.46667px;font-family:Typewriter-Serial;-inkscape-font-specification:'Typewriter-Serial, Normal';font-variant-ligatures:normal;font-variant-caps:normal;font-variant-numeric:normal;font-variant-east-asian:normal;letter-spacing:1.32292px;stroke-width:0.264583"
         x="0"
         y="0">scarf</tspan></text>
    <path
       style="font-size:8.46667px;font-family:Typewriter-Serial;-inkscape-font-specification:'Typewriter-Serial, Normal';letter-spacing:1.32292px;display:inline;stroke-width:0.264583"
       d="m 22.187585,61.038013 q 0.03387,-0.3048 0.1016,-0.372533 0.0762,-0.0762 0.220134,-0.0762 0.313266,0 0.313266,0.381 l -0.01693,0.169333 -0.0508,0.389467 v 0.05927 q 0,0.05927 0.0085,0.160866 0.0085,0.09313 0.03387,0.211667 l 0.01693,0.270934 q 0,0.381 -0.3302,0.381 -0.304801,0 -0.304801,-0.372534 v -0.03387 -0.169334 q 0,-0.3556 -0.3048,-0.567267 -0.296333,-0.220133 -0.7874,-0.220133 -0.4318,0 -0.6858,0.186267 -0.254,0.186266 -0.254,0.508 0,0.237066 0.1778,0.440267 0.220133,0.254 0.9906,0.338666 l 0.3048,0.0254 q 0.338667,0.04233 0.567267,0.118534 0.2286,0.06773 0.440267,0.220133 0.524934,0.3556 0.524934,1.041401 0,0.635 -0.516467,1.0668 -0.516467,0.4318 -1.286934,0.4318 -0.364067,0 -0.719667,-0.1016 -0.347134,-0.1016 -0.651934,-0.381 v 0.118533 q 0,0.254 -0.0762,0.338667 -0.06773,0.09313 -0.262467,0.09313 -0.338666,0 -0.338666,-0.397934 l 0.0085,-0.160867 q 0.09313,-0.575733 0.08467,-0.643467 l -0.08467,-0.448733 -0.01693,-0.169333 q 0,-0.397934 0.3556,-0.397934 0.110067,0 0.186267,0.05927 0.0762,0.0508 0.0762,0.135466 l 0.01693,0.465667 q 0,0.364067 0.397934,0.609601 0.397933,0.245533 0.9652,0.245533 0.541867,0 0.829734,-0.211667 0.296333,-0.211667 0.296333,-0.601133 0,-0.127 -0.03387,-0.220134 -0.0254,-0.09313 -0.1016,-0.186267 -0.101601,-0.135466 -0.211667,-0.186266 -0.110067,-0.0508 -0.389467,-0.09313 l -0.423334,-0.0762 -0.423333,-0.04233 q -0.626534,-0.0762 -1.007534,-0.448734 -0.381,-0.372533 -0.381,-0.905933 0,-0.6096 0.4318,-0.982134 0.440267,-0.381 1.134534,-0.381 0.4318,0 0.694267,0.09313 0.1524,0.05927 0.220133,0.1016 0.06773,0.03387 0.262467,0.186267 z m 6.191258,0.719667 -0.06773,-0.135467 q -0.09313,-0.169333 -0.321734,-0.262466 -0.2286,-0.101601 -0.524933,-0.101601 -0.643467,0 -1.041401,0.516467 -0.397933,0.516467 -0.397933,1.363134 0,0.821267 0.381,1.337734 0.381,0.516467 0.982134,0.516467 0.4826,0 0.753533,-0.220133 0.270934,-0.228601 0.4318,-0.762001 0.06773,-0.270933 0.152401,-0.372533 0.08467,-0.1016 0.237066,-0.1016 0.143934,0 0.237067,0.1016 0.09313,0.1016 0.09313,0.254 0,0.194733 -0.1016,0.474133 -0.09313,0.2794 -0.237066,0.499534 -0.491067,0.770467 -1.574801,0.770467 -0.9398,0 -1.532467,-0.6858 -0.584201,-0.694267 -0.584201,-1.786468 0,-1.126067 0.609601,-1.8034 0.618067,-0.685801 1.6256,-0.685801 0.736601,0 1.210734,0.397934 0.474134,0.397933 0.474134,1.024467 0,0.338667 -0.186267,0.5588 -0.1778,0.211667 -0.465667,0.211667 -0.220133,0 -0.381,-0.135467 -0.160867,-0.135467 -0.160867,-0.3302 0,-0.127 0.06773,-0.237067 0.118533,-0.2032 0.270933,-0.2032 h 0.08467 l 0.0085,-0.05927 v -0.06773 z m 4.760391,1.049867 0.3302,-0.05927 q 0.465667,-0.08467 0.651933,-0.237066 0.186267,-0.1524 0.186267,-0.482601 0,-0.364066 -0.254,-0.575733 -0.254,-0.211667 -0.694267,-0.211667 -0.347133,0 -0.643467,0.143934 -0.3302,0.143933 -0.3302,0.296333 0.0254,0.0508 0.03387,0.06773 l 0.06773,0.0508 q 0.110067,0.0762 0.110067,0.2794 0,0.423334 -0.541867,0.423334 -0.491067,0 -0.491067,-0.567267 0,-0.5588 0.499534,-0.905934 0.499533,-0.347133 1.2954,-0.347133 0.855134,0 1.261534,0.4064 0.414867,0.397934 0.414867,1.227667 v 2.099734 q 0,0.584201 0.364067,0.584201 0.169333,0 0.237066,-0.169334 0.0762,-0.169333 0.0762,-0.550333 v -0.160867 l -0.0085,-0.194733 q 0,-0.270934 0.287867,-0.270934 0.220133,0 0.2794,0.1778 0.03387,0.06773 0.04233,0.186267 0.0085,0.118533 0.0085,0.364067 0,0.804333 -0.338667,1.0414 -0.08467,0.05927 -0.270934,0.1016 -0.186266,0.04233 -0.347133,0.04233 -0.287867,0 -0.491067,-0.0762 -0.338667,-0.1016 -0.423333,-0.626533 -0.321734,0.414867 -0.609601,0.541867 -0.4318,0.186267 -0.999067,0.186267 -0.7366,0 -1.151467,-0.364067 -0.4064,-0.372534 -0.4064,-1.041401 0,-1.075267 1.439334,-1.3208 z m 1.1938,0.804334 v -0.592667 q -0.110067,0.0762 -0.211667,0.127 -0.09313,0.0508 -0.2032,0.1016 -0.05927,0.01693 -0.127,0.04233 -0.06773,0.01693 -0.160866,0.0254 l -0.389467,0.06773 -0.4064,0.06773 q -0.397934,0.0762 -0.567267,0.2286 -0.245534,0.220134 -0.245534,0.541867 0,0.3302 0.237067,0.5334 0.245533,0.194734 0.643467,0.194734 0.372533,0 0.677334,-0.110067 0.3048,-0.110067 0.465666,-0.313267 0.287867,-0.389467 0.287867,-0.9144 z m 5.217597,-2.235201 q 0.135467,-0.1524 0.254,-0.262467 0.118534,-0.110067 0.211667,-0.1778 0.347134,-0.2286 0.821267,-0.2286 0.677334,0 1.075267,0.3556 0.397934,0.3556 0.397934,0.9652 0,0.397934 -0.2032,0.660401 -0.2032,0.262466 -0.524934,0.262466 -0.245533,0 -0.397933,-0.118533 -0.1524,-0.118533 -0.1524,-0.313267 0,-0.143933 0.08467,-0.254 0.06773,-0.118533 0.1524,-0.118533 h 0.2794 q 0.01693,-0.03387 0.0254,-0.0762 0.0085,-0.04233 0.0085,-0.110067 0,-0.3048 -0.220133,-0.4826 -0.220134,-0.1778 -0.592667,-0.1778 -0.516467,0 -0.821267,0.389467 -0.296334,0.381 -0.296334,1.0414 v 1.794934 q 0,0.194734 0.05927,0.3048 0.06773,0.110067 0.186267,0.110067 l 0.3556,-0.05927 0.110067,-0.0085 q 0.347133,0 0.347133,0.338666 0,0.143934 -0.03387,0.186267 -0.110066,0.110067 -0.448733,0.110067 -0.08467,0 -0.127,-0.01693 l -0.313267,-0.0254 -0.4572,-0.0254 q -0.381,0 -0.804334,0.0508 l -0.2286,0.0254 q -0.389467,0 -0.389467,-0.321733 0,-0.135467 0.1016,-0.2286 0.1016,-0.09313 0.245534,-0.09313 l 0.110066,0.0085 0.287867,0.05927 q 0.296334,0 0.296334,-0.414867 V 61.78308 q 0,-0.448734 -0.262467,-0.448734 l -0.245533,0.03387 q -0.0508,0.01693 -0.169334,0.01693 -0.364067,0 -0.364067,-0.313267 0,-0.3048 0.414867,-0.3048 l 0.1524,0.0085 q 0.270934,0.03387 0.347134,0.0254 l 0.372533,-0.05927 0.0762,-0.0085 q 0.110067,0 0.160867,0.0508 0.0508,0.0508 0.06773,0.09313 l 0.04233,0.06773 0.0085,0.2032 z m 6.038861,4.089401 -0.474134,-0.0254 q -0.414867,0 -0.8382,0.0508 l -0.2286,0.0254 q -0.389467,0 -0.389467,-0.321733 0,-0.135467 0.1016,-0.2286 0.1016,-0.09313 0.245534,-0.09313 l 0.110066,0.0085 0.287867,0.05927 q 0.296333,0 0.296333,-0.414867 v -3.081868 q 0,-0.09313 -0.1016,-0.09313 h -0.516466 q -0.127001,0 -0.220134,-0.08467 -0.08467,-0.09313 -0.08467,-0.2286 0,-0.09313 0.08467,-0.160867 0.09313,-0.0762 0.220134,-0.0762 h 0.541866 q 0.0762,0 0.0762,-0.08467 v -0.321734 q 0,-0.5588 0.414867,-0.905934 0.423334,-0.3556 1.100667,-0.3556 0.575734,0 0.931334,0.245534 0.3556,0.245533 0.3556,0.635 0,0.1778 -0.127,0.313267 -0.127,0.135466 -0.296333,0.135466 -0.1778,0 -0.321734,-0.110066 -0.135466,-0.118534 -0.135466,-0.254 l 0.0085,-0.0508 0.08467,-0.186267 q 0,-0.06773 -0.1524,-0.118533 -0.143934,-0.0508 -0.296334,-0.0508 -0.389466,0 -0.626533,0.194733 -0.237067,0.194733 -0.237067,0.516467 v 0.3302 q 0,0.06773 0.06773,0.06773 h 0.787401 q 0.127,0 0.2032,0.06773 0.0762,0.06773 0.0762,0.1778 0,0.127 -0.08467,0.220133 -0.0762,0.08467 -0.194733,0.08467 h -0.804334 q -0.0508,0 -0.0508,0.09313 v 3.081868 q 0,0.2032 0.05927,0.313267 0.06773,0.1016 0.186266,0.1016 l 0.423334,-0.05927 0.110067,-0.0085 q 0.347133,0 0.347133,0.338666 0,0.143934 -0.04233,0.186267 -0.09313,0.110067 -0.448734,0.110067 l -0.127,-0.01693 z"
       id="text2"
       inkscape:label="scarf object to path"
       aria-label="scarf" />
  </g>
</svg>
